<svg xmlns="http://www.w3.org/2000/svg" fill="none" viewBox="-0.5 -0.5 24 24" id="Mysql-Icon--Streamline-Svg-Logos" height="24" width="24"><desc>Mysql Icon Streamline Icon: https://streamlinehq.com</desc><path fill="#00546B" d="M20.983666666666668 17.544735416666665c-1.2253489583333332 -0.030546875 -2.1750333333333334 0.09204791666666667 -2.9715520833333335 0.42895 -0.22973645833333334 0.09188020833333334 -0.5974010416666667 0.09197604166666667 -0.62804375 0.3829260416666667 0.12261875000000001 0.12261875000000001 0.13788020833333334 0.3217125 0.24511770833333332 0.4901635416666667 0.18392812500000003 0.306259375 0.5054489583333334 0.7199239583333334 0.79651875 0.9343989583333334 0.32161666666666666 0.24504583333333332 0.6433291666666667 0.49006770833333335 0.9802312500000001 0.7045427083333334 0.5974010416666667 0.36766458333333335 1.2713968750000002 0.58204375 1.8534166666666667 0.9496843750000001 0.33709375 0.21428333333333333 0.6739 0.4901635416666667 1.0108979166666667 0.7199239583333334 0.168546875 0.12242708333333334 0.2756885416666667 0.32161666666666666 0.4901635416666667 0.3982114583333333v-0.04595208333333334c-0.1072375 -0.13788020833333334 -0.13788020833333334 -0.3369739583333334 -0.245021875 -0.4901635416666667 -0.15309375 -0.153165625 -0.30635520833333335 -0.2910458333333334 -0.4595208333333333 -0.4442354166666667 -0.4442354166666667 -0.5973052083333333 -0.9956125 -1.1181114583333334 -1.5930135416666666 -1.5469656250000001 -0.49006770833333335 -0.3369979166666667 -1.562346875 -0.79651875 -1.7614645833333333 -1.3632531250000002 0 0 -0.015381249999999999 -0.015285416666666666 -0.030642708333333338 -0.030570833333333332 0.3369739583333334 -0.030642708333333338 0.7351854166666667 -0.153165625 1.0568979166666668 -0.24511770833333332 0.5208302083333334 -0.13790416666666666 0.9956125 -0.1072375 1.5317041666666669 -0.24504583333333332 0.24504583333333332 -0.061309375000000006 0.4901875 -0.13788020833333334 0.735209375 -0.214475v-0.137784375c-0.2755927083333334 -0.275784375 -0.4747822916666667 -0.643353125 -0.7658520833333334 -0.90375625 -0.7811375 -0.6740916666666668 -1.6389416666666667 -1.3326104166666666 -2.5273166666666667 -1.8839875000000001 -0.474878125 -0.30633125 -1.0875645833333334 -0.5055447916666667 -1.5930135416666666 -0.7658520833333334 -0.18371250000000003 -0.09204791666666667 -0.4901635416666667 -0.13788020833333334 -0.5973052083333333 -0.2910697916666667 -0.275784375 -0.3369739583333334 -0.42895 -0.7811135416666667 -0.6280677083333334 -1.1794208333333334 -0.44401979166666666 -0.8425427083333334 -0.8730895833333334 -1.77675 -1.256015625 -2.665125 -0.27556875 -0.5974010416666667 -0.444115625 -1.1948020833333335 -0.7811135416666667 -1.7461791666666668 -1.5776322916666667 -2.6038875 -3.29316875 -4.181519791666666 -5.927722916666667 -5.728605208333333 -0.5667583333333334 -0.32162145833333333 -1.2406343750000002 -0.4595136458333333 -1.9605583333333332 -0.6279622916666667 -0.38283020833333337 -0.015374062500000002 -0.7658520833333334 -0.045930520833333335 -1.148778125 -0.06130697916666667 -0.24504583333333332 -0.10723989583333333 -0.4901635416666667 -0.3982042708333333 -0.7046625 -0.5360964583333334 -0.8728739583333334 -0.5514729166666668 -3.1246122916666668 -1.7460881250000002 -3.7679462500000005 -0.16844864583333333C-0.07736720833333334 2.2277728125 0.9488961458333334 3.2079968750000005 1.3011651041666668 3.713541666666667c0.2605061458333333 0.35228333333333334 0.5974034375 0.7504708333333334 0.7812285416666667 1.148778125 0.1072375 0.26021145833333337 0.13779395833333333 0.5360916666666667 0.24503385416666668 0.8117802083333334 0.24512250000000002 0.6738041666666666 0.47478708333333336 1.4244666666666668 0.7964995833333334 2.052534375 0.168546875 0.32161666666666666 0.35228333333333334 0.6586145833333333 0.5667583333333334 0.9495885416666666 0.12252291666666666 0.16842708333333334 0.3369020833333333 0.24511770833333332 0.3829260416666667 0.52080625 -0.21437916666666668 0.30633125 -0.22976041666666666 0.7658520833333334 -0.3523791666666667 1.148778125 -0.5513770833333334 1.7308218750000002 -0.3369020833333333 3.8752125000000004 0.4442354166666667 5.1464895833333335 0.24504583333333332 0.38283020833333337 0.8271614583333334 1.22546875 1.6082989583333334 0.90375625 0.6892572916666667 -0.2756885416666667 0.5360916666666667 -1.148778125 0.735209375 -1.9146302083333335 0.04602395833333334 -0.18392812500000003 0.015357291666666668 -0.30635520833333335 0.1072375 -0.428878125 0.000071875 0.015285416666666666 0 0.03066666666666667 0 0.03066666666666667 0.214475 0.4288541666666667 0.4288541666666667 0.842446875 0.6279479166666667 1.2713010416666668 0.47490208333333334 0.7504708333333334 1.30194375 1.5317041666666669 1.991225 2.052510416666667 0.36773645833333335 0.2755927083333334 0.6587104166666667 0.7504947916666667 1.1182072916666668 0.9190416666666666v-0.04604791666666667h-0.030642708333333338c-0.09197604166666667 -0.13788020833333334 -0.22976041666666666 -0.19909374999999999 -0.35228333333333334 -0.30633125 -0.2756885416666667 -0.2756885416666667 -0.582115625 -0.6126864583333334 -0.7964947916666667 -0.9190177083333334 -0.6432333333333333 -0.8578281249999999 -1.2100875 -1.8073927083333334 -1.7155364583333335 -2.787719791666667 -0.245021875 -0.47480625000000004 -0.459496875 -0.9956125 -0.6586145833333333 -1.4703947916666666 -0.09195208333333334 -0.18392812500000003 -0.09195208333333334 -0.4595208333333333 -0.24511770833333332 -0.5513770833333334 -0.22976041666666666 0.336878125 -0.5666625000000001 0.6279479166666667 -0.735209375 1.0415406249999999 -0.2908541666666667 0.6586145833333333 -0.32161666666666666 1.4703947916666666 -0.4288541666666667 2.312817708333333 -0.06121354166666667 0.015381249999999999 -0.03066666666666667 0 -0.061309375000000006 0.03066666666666667 -0.49006770833333335 -0.12261875000000001 -0.6586145833333333 -0.6279718750000001 -0.842446875 -1.056921875 -0.459496875 -1.08746875 -0.5360916666666667 -2.833647916666667 -0.137784375 -4.089567708333334 0.1072375 -0.3217125 0.566734375 -1.3326104166666666 0.3829260416666667 -1.6389416666666667 -0.09185625000000001 -0.2910697916666667 -0.39830729166666673 -0.4595208333333333 -0.5667583333333334 -0.68928125 -0.19909374999999999 -0.2910697916666667 -0.41356875 -0.6586145833333333 -0.5513770833333334 -0.9803270833333334 -0.367640625 -0.8577083333333334 -0.5514729166666668 -1.8073927083333334 -0.9496604166666667 -2.665196875 -0.18383229166666668 -0.39830729166666673 -0.5054513541666668 -0.8118041666666667 -0.7658616666666667 -1.1793489583333334C1.6076041666666667 2.917046875 1.285886875 2.6259770833333334 1.0561264583333334 2.1358087500000003c-0.07648697916666666 -0.16844864583333333 -0.18382270833333336 -0.44413718750000003 -0.06130697916666667 -0.6279622916666667 0.030654687500000003 -0.12251572916666667 0.0918634375 -0.16844625000000002 0.21447739583333333 -0.19910093750000002 0.19910333333333335 -0.168546875 0.7658544791666667 0.045930520833333335 0.9649530208333335 0.13779395833333333 0.5667511458333333 0.22965979166666667 1.0415334375 0.4442354166666667 1.5164355208333333 0.7658544791666667 0.21437916666666668 0.15317041666666667 0.444115625 0.4442258333333334 0.7198041666666667 0.520820625h0.32173645833333336c0.4901635416666667 0.10714166666666666 1.0415406249999999 0.030642708333333338 1.5010375 0.16845104166666666 0.8118760416666667 0.26030729166666666 1.5469895833333334 0.6433291666666667 2.2057 1.056921875 2.0066062500000004 1.2712770833333333 3.660713541666667 3.0787656250000004 4.7789447916666665 5.238441666666667 0.18383229166666668 0.3521875 0.26030729166666666 0.6739958333333333 0.4288541666666667 1.0415406249999999 0.3217125 0.750590625 0.7199239583333334 1.5164427083333334 1.0415406249999999 2.251628125 0.32161666666666666 0.719828125 0.6279718750000001 1.4551333333333334 1.08746875 2.052534375 0.22985625 0.32152083333333337 1.148778125 0.49006770833333335 1.5623708333333335 0.6586145833333333 0.30633125 0.137784375 0.7812333333333334 0.260403125 1.0568979166666668 0.4288541666666667 0.5207343750000001 0.32152083333333337 1.0415645833333336 0.6892572916666667 1.531728125 1.0415406249999999 0.24511770833333332 0.18373645833333335 1.0108739583333333 0.5667583333333334 1.0568979166666668 0.8729937500000001Z" stroke-width="1"></path><path fill="#00546B" d="M5.359958333333333 4.234132291666667c-0.260403125 0 -0.4441395833333333 0.030738541666666667 -0.6279479166666667 0.07666666666666667l0 0.03066666666666667h0.030642708333333338c0.12261875000000001 0.245021875 0.3369020833333333 0.41356875 0.49006770833333335 0.6279479166666667 0.12261875000000001 0.24504583333333332 0.22976041666666666 0.4901635416666667 0.3523791666666667 0.7353052083333333 0.015285416666666666 -0.015381249999999999 0.030546875 -0.03066666666666667 0.030546875 -0.03066666666666667 0.21457083333333332 -0.15326145833333335 0.3217125 -0.3982833333333334 0.3217125 -0.7658520833333334 -0.09195208333333334 -0.1072375 -0.1072375 -0.214475 -0.18380833333333335 -0.3217125 -0.09188020833333334 -0.15326145833333335 -0.2910697916666667 -0.22976041666666666 -0.41359270833333334 -0.35235520833333334Z" stroke-width="1"></path></svg>